<svg id="Capa_1" xmlns="http://www.w3.org/2000/svg" viewBox="0 0 354.796 354.796"><g id="Layer_5_58_"><path d="M265.442 109.092c-10.602-4.25-13.665-6.82-13.665-11.46 0-3.715 2.813-8.054 10.744-8.054 7.016 0 12.396 2.766 12.444 2.79.566.302 1.2.463 1.83.463 1.535 0 2.893-.928 3.456-2.366l1.927-4.926c.67-1.795-.347-3.36-1.645-3.92-4.32-1.88-12.76-3.335-12.846-3.35-.136-.024-.61-.125-.61-.678l-.026-7.146c0-2.152-1.797-3.904-4.003-3.904h-3.457c-2.204 0-4 1.75-4 3.905l.01 7.513c0 .576-.625.826-.853.88-10.655 2.537-17.314 10.342-17.314 20.187 0 12.273 10.145 17.82 21.1 21.982 8.756 3.438 12.328 6.924 12.328 12.037 0 5.564-5.058 9.45-12.306 9.45-6.19 0-14.565-3.923-14.648-3.963-.536-.253-1.104-.38-1.688-.38-1.594 0-2.982.963-3.537 2.456l-1.84 4.982c-.653 1.86.354 3.37 1.643 4.042 5.144 2.68 15.098 4.25 15.54 4.318.12.017.726.23.726.784v7.48c0 2.152 1.796 3.904 4.003 3.904h3.572c2.208 0 4.005-1.75 4.005-3.904v-7.872c0-.736.543-.8.655-.828 11.35-2.55 18.343-10.855 18.343-21.283-.003-10.712-5.95-17.633-19.886-23.138z" class="CfCaSxOf_0"/><path d="M260.98 22.51c-51.817 0-93.82 42.004-93.82 93.817 0 51.814 42.003 93.82 93.82 93.82 51.813 0 93.816-42.006 93.816-93.82 0-51.813-42.003-93.818-93.817-93.818zm0 165.894c-39.81 0-72.077-32.27-72.077-72.076s32.268-72.075 72.076-72.075c39.805 0 72.072 32.27 72.072 72.075s-32.267 72.076-72.073 72.076z" class="CfCaSxOf_1"/><g><path d="M335.733 255.61c-19.95 11.01-47.39 21.192-74.753 25.484-24.346 3.818-70.148-5.39-70.148-16.265 0-4.122 40.17 10.153 64.47 3.67 18.632-4.97 15.987-22.4 5.852-24.7-10.076-2.287-69.108-23.913-94.323-24.66-11.877-.35-41.202 4.132-55.392 6.443-4.86.79-7.91.704-8.213 5.356-1.412 21.62-4.195 65.83-5.712 88.925-.032.488.646 7.05 6.06 2.432 5.928-5.054 14.24-10.656 21.93-8.912 12.063 2.737 116.424 21.856 130.82 18.51 20.592-4.787 78.887-39.334 90.064-50.072 17.324-16.647 3.857-34.222-10.654-26.213z" class="CfCaSxOf_2"/><path d="M74.426 224.74l-54.672-2.694c-4.22-.208-8.532 2.973-9.58 7.066L.23 319.367c-1.048 4.094 1.55 7.578 5.773 7.74l60.59-.005c4.224.163 7.942-3.15 8.266-7.365l6.655-86.958c.322-4.214-2.868-7.832-7.09-8.04zM42.24 315.145c-8.35 0-15.116-6.768-15.116-15.116 0-8.35 6.768-15.117 15.116-15.117s15.116 6.768 15.116 15.116c0 8.348-6.767 15.115-15.116 15.115z" class="CfCaSxOf_3"/></g></g><style>.CfCaSxOf_0{stroke-dasharray:352 354;stroke-dashoffset:353;animation:CfCaSxOf_draw 3000ms ease-in 0ms forwards;}.CfCaSxOf_1{stroke-dasharray:1043 1045;stroke-dashoffset:1044;animation:CfCaSxOf_draw 3000ms ease-in 0ms forwards;}.CfCaSxOf_2{stroke-dasharray:824 826;stroke-dashoffset:825;animation:CfCaSxOf_draw 3000ms ease-in 0ms forwards;}.CfCaSxOf_3{stroke-dasharray:437 439;stroke-dashoffset:438;animation:CfCaSxOf_draw 3000ms ease-in 0ms forwards;}@keyframes CfCaSxOf_draw{100%{stroke-dashoffset:0;}}@keyframes CfCaSxOf_fade{0%{stroke-opacity:1;}94.44444444444444%{stroke-opacity:1;}100%{stroke-opacity:0;}}</style></svg>